<svg xmlns="http://www.w3.org/2000/svg" xmlns:xlink="http://www.w3.org/1999/xlink" width="1920" zoomAndPan="magnify" viewBox="0 0 1440 809.999993" height="1080" preserveAspectRatio="xMidYMid meet" version="1.0"><defs><clipPath id="4e78b79298"><path d="M 347.425781 392.859375 L 364.835938 392.859375 L 364.835938 410.273438 L 347.425781 410.273438 Z M 347.425781 392.859375 " clip-rule="nonzero"/></clipPath><clipPath id="5672036cab"><path d="M 348.554688 445.09375 L 365.960938 445.09375 L 365.960938 462.5 L 348.554688 462.5 Z M 348.554688 445.09375 " clip-rule="nonzero"/></clipPath><clipPath id="318a6e1405"><path d="M 399.242188 375.320312 L 429.570312 375.320312 L 429.570312 392.929688 L 399.242188 392.929688 Z M 399.242188 375.320312 " clip-rule="nonzero"/></clipPath><clipPath id="36e9fb56d0"><path d="M 399.625 375.414062 L 429.316406 375.453125 L 417.074219 375.453125 L 417.074219 392.859375 L 399.660156 392.859375 " clip-rule="nonzero"/></clipPath><clipPath id="4ee12b6492"><path d="M 399.242188 410.050781 L 417.339844 410.050781 L 417.339844 428 L 399.242188 428 Z M 399.242188 410.050781 " clip-rule="nonzero"/></clipPath><clipPath id="75e271d677"><path d="M 399.660156 410.273438 L 417.074219 410.28125 L 417.074219 427.6875 L 399.636719 427.679688 C 399.625 427.15625 399.625 426.625 399.625 426.089844 " clip-rule="nonzero"/></clipPath><clipPath id="5c7a34d074"><path d="M 466.257812 375.320312 L 466.746094 375.320312 L 466.746094 392.929688 L 466.257812 392.929688 Z M 466.257812 375.320312 " clip-rule="nonzero"/></clipPath><clipPath id="0c68f4682b"><path d="M 466.53125 392.867188 L 466.523438 392.867188 L 466.53125 375.453125 Z M 466.53125 392.867188 " clip-rule="nonzero"/></clipPath><clipPath id="40fe458245"><path d="M 466.257812 410.050781 L 483.867188 410.050781 L 483.867188 428 L 466.257812 428 Z M 466.257812 410.050781 " clip-rule="nonzero"/></clipPath><clipPath id="c55578528c"><path d="M 483.789062 410.273438 L 483.789062 427.6875 L 466.492188 427.679688 C 466.515625 427.164062 466.523438 426.625 466.523438 426.089844 L 466.523438 410.273438 Z M 483.789062 410.273438 " clip-rule="nonzero"/></clipPath><clipPath id="f39064d30a"><path d="M 364.839844 358.035156 L 382.246094 358.035156 L 382.246094 375.453125 L 364.839844 375.453125 Z M 364.839844 358.035156 " clip-rule="nonzero"/></clipPath><clipPath id="68d426953a"><path d="M 399.660156 358.035156 L 417.074219 358.035156 L 417.074219 375.453125 L 399.660156 375.453125 Z M 399.660156 358.035156 " clip-rule="nonzero"/></clipPath><clipPath id="8a50cd8f3b"><path d="M 399.242188 392.441406 L 434.949219 392.441406 L 434.949219 410.539062 L 399.242188 410.539062 Z M 399.242188 392.441406 " clip-rule="nonzero"/></clipPath><clipPath id="65e88e0f2d"><path d="M 434.492188 392.867188 L 434.484375 410.273438 L 399.660156 410.273438 L 399.660156 392.859375 L 417.074219 392.867188 Z M 434.492188 392.867188 " clip-rule="nonzero"/></clipPath><clipPath id="60938b8470"><path d="M 399.660156 410.273438 L 417.074219 410.273438 L 417.074219 427.6875 L 399.660156 427.6875 Z M 399.660156 410.273438 " clip-rule="nonzero"/></clipPath><clipPath id="6fe4d89eec"><path d="M 466.378906 410.273438 L 483.789062 410.273438 L 483.789062 427.6875 L 466.378906 427.6875 Z M 466.378906 410.273438 " clip-rule="nonzero"/></clipPath><clipPath id="2f5a657cd1"><path d="M 417 410.050781 L 434.949219 410.050781 L 434.949219 410.539062 L 417 410.539062 Z M 417 410.050781 " clip-rule="nonzero"/></clipPath><clipPath id="1b7780db6a"><path d="M 434.484375 410.28125 L 417.074219 410.273438 L 434.484375 410.273438 Z M 434.484375 410.28125 " clip-rule="nonzero"/></clipPath><clipPath id="4aaf6f5a30"><path d="M 417.074219 358.035156 L 434.492188 358.035156 L 434.492188 375.453125 L 417.074219 375.453125 Z M 417.074219 358.035156 " clip-rule="nonzero"/></clipPath><clipPath id="68c0620e96"><path d="M 417 410.050781 L 434.949219 410.050781 L 434.949219 410.539062 L 417 410.539062 Z M 417 410.050781 " clip-rule="nonzero"/></clipPath><clipPath id="bc2a8f125f"><path d="M 434.484375 410.28125 L 417.074219 410.273438 L 434.484375 410.273438 Z M 434.484375 410.28125 " clip-rule="nonzero"/></clipPath><clipPath id="9d281405e3"><path d="M 382.253906 375.453125 L 399.660156 375.453125 L 399.660156 392.859375 L 382.253906 392.859375 Z M 382.253906 375.453125 " clip-rule="nonzero"/></clipPath><clipPath id="f095adfdcf"><path d="M 457.664062 375.453125 L 466.53125 375.453125 L 466.53125 387.324219 L 457.664062 387.324219 Z M 457.664062 375.453125 " clip-rule="nonzero"/></clipPath><clipPath id="17d555b7d1"><path d="M 449.125 375.453125 L 466.53125 375.453125 L 466.53125 392.867188 L 449.125 392.867188 Z M 449.125 375.453125 " clip-rule="nonzero"/></clipPath><clipPath id="99e0c87577"><path d="M 383.101562 375.320312 L 496.585938 375.320312 L 496.585938 476 L 383.101562 476 Z M 383.101562 375.320312 " clip-rule="nonzero"/></clipPath><clipPath id="b520638e84"><path d="M 496.214844 375.414062 L 496.214844 426.089844 C 496.214844 458.941406 476.8125 475.765625 447.914062 475.765625 C 425.222656 475.765625 408.398438 465.503906 402.210938 445.097656 L 383.378906 445.097656 L 383.378906 427.6875 L 417.074219 427.6875 L 417.074219 410.28125 L 434.484375 410.28125 L 434.484375 427.6875 L 429.347656 427.6875 C 429.847656 441.96875 437.226562 448.058594 447.914062 448.058594 C 458.609375 448.058594 465.984375 441.96875 466.492188 427.6875 L 483.789062 427.6875 L 483.789062 410.273438 L 466.523438 410.273438 L 466.53125 387.332031 L 475.082031 387.332031 L 475.082031 375.414062 Z M 496.214844 375.414062 " clip-rule="nonzero"/></clipPath><clipPath id="e884faeb99"><path d="M 511.648438 372.84375 L 608.230469 372.84375 L 608.230469 473.199219 L 511.648438 473.199219 Z M 511.648438 372.84375 " clip-rule="nonzero"/></clipPath><clipPath id="d895012201"><path d="M 559.941406 372.84375 C 531.042969 372.84375 511.648438 389.667969 511.648438 422.515625 L 511.648438 473.179688 L 541.335938 473.179688 L 541.335938 422.515625 C 541.335938 407.082031 548.855469 400.546875 559.933594 400.546875 C 571.011719 400.546875 578.535156 407.082031 578.535156 422.515625 L 578.535156 473.179688 L 608.21875 473.179688 L 608.21875 422.515625 C 608.234375 389.464844 588.832031 372.84375 559.941406 372.84375 " clip-rule="nonzero"/></clipPath><clipPath id="db5cc1984b"><path d="M 618.519531 375.414062 L 656.53125 375.414062 L 656.53125 405.101562 L 618.519531 405.101562 Z M 626.839844 405.101562 L 656.53125 405.101562 L 656.53125 473.183594 L 626.839844 473.183594 Z M 626.839844 405.101562 " clip-rule="nonzero"/></clipPath><clipPath id="669efbafdc"><path d="M 626.839844 334.242188 L 656.527344 334.242188 L 656.527344 363.925781 L 626.839844 363.925781 Z M 626.839844 334.242188 " clip-rule="nonzero"/></clipPath><clipPath id="658a754bed"><path d="M 673.640625 375.414062 L 823.371094 375.414062 L 823.371094 475.757812 L 673.640625 475.757812 Z M 673.640625 375.414062 " clip-rule="nonzero"/></clipPath><clipPath id="578ec1aec0"><path d="M 793.570312 430.433594 C 793.570312 443.5 787.242188 448.054688 778.332031 448.054688 C 769.625 448.054688 763.285156 443.5 763.285156 430.433594 L 763.285156 375.414062 L 733.609375 375.414062 L 733.609375 430.433594 C 733.609375 443.5 727.273438 448.054688 718.5625 448.054688 C 709.660156 448.054688 703.324219 443.5 703.324219 430.433594 L 703.324219 375.414062 L 673.640625 375.414062 L 673.640625 430.433594 C 673.640625 461.90625 691.847656 475.757812 715.59375 475.757812 C 729.445312 475.757812 741.125 470.410156 748.445312 460.121094 C 755.765625 470.410156 767.246094 475.757812 781.300781 475.757812 C 805.046875 475.757812 823.257812 461.90625 823.257812 430.433594 L 823.257812 375.414062 L 793.570312 375.414062 Z M 793.570312 430.433594 " clip-rule="nonzero"/></clipPath><clipPath id="e0033d185d"><path d="M 834.546875 375.414062 L 872.480469 375.414062 L 872.480469 405.101562 L 834.546875 405.101562 Z M 842.796875 405.101562 L 872.480469 405.101562 L 872.480469 473.183594 L 842.796875 473.183594 Z M 842.796875 405.101562 " clip-rule="nonzero"/></clipPath><clipPath id="002fd79e78"><path d="M 842.792969 334.242188 L 872.476562 334.242188 L 872.476562 363.925781 L 842.792969 363.925781 Z M 842.792969 334.242188 " clip-rule="nonzero"/></clipPath><clipPath id="f1b26994c0"><path d="M 884.710938 372.84375 L 968.554688 372.84375 L 968.554688 475.9375 L 884.710938 475.9375 Z M 884.710938 372.84375 " clip-rule="nonzero"/></clipPath><clipPath id="faca68dcf7"><path d="M 932.605469 413.214844 C 923.5 411.828125 916.375 411.042969 916.375 405.101562 C 916.375 401.140625 919.347656 397.382812 926.667969 397.382812 C 932.605469 397.382812 936.558594 399.957031 937.355469 404.507812 L 966.25 404.507812 C 965.660156 386.890625 950.613281 372.84375 926.277344 372.84375 C 901.9375 372.84375 886.292969 386.695312 886.292969 406.488281 C 886.292969 430.039062 908.464844 433.40625 921.917969 435.386719 C 931.023438 436.773438 938.148438 437.367188 938.148438 443.898438 C 938.148438 448.054688 935.179688 451.226562 926.074219 451.226562 C 917.960938 451.226562 914.203125 448.652344 914 443.507812 L 884.710938 443.507812 C 885.109375 462.3125 901.339844 475.773438 926.472656 475.773438 C 951.605469 475.773438 968.230469 462.3125 968.230469 442.128906 C 968.230469 418.976562 946.660156 415.210938 932.605469 413.230469 " clip-rule="nonzero"/></clipPath><clipPath id="6efb21116e"><path d="M 975.582031 372.707031 L 1080.59375 372.707031 L 1080.59375 475.933594 L 975.582031 475.933594 Z M 975.582031 372.707031 " clip-rule="nonzero"/></clipPath><clipPath id="f77c7b8933"><path d="M 1007.226562 413.816406 C 1010.195312 403.921875 1018.109375 399.363281 1028.40625 399.363281 C 1038.703125 399.363281 1046.617188 403.71875 1049.976562 413.816406 Z M 1080.457031 424.300781 C 1080.457031 394.617188 1059.277344 372.84375 1028.40625 372.84375 C 997.535156 372.84375 975.757812 394.617188 975.757812 424.300781 C 975.757812 453.984375 997.527344 475.757812 1028.398438 475.757812 C 1052.742188 475.757812 1071.34375 462.296875 1077.679688 442.113281 L 1047.007812 442.113281 C 1043.25 447.460938 1036.910156 449.238281 1028.398438 449.238281 C 1017.710938 449.238281 1009.003906 444.09375 1006.625 432.609375 L 1080.449219 432.609375 Z M 1080.457031 424.300781 " clip-rule="nonzero"/></clipPath><clipPath id="4e8234eb1b"><path d="M 1078 368.683594 L 1085.511719 368.683594 L 1085.511719 377.621094 L 1078 377.621094 Z M 1078 368.683594 " clip-rule="nonzero"/></clipPath><clipPath id="9023b31285"><path d="M 1082.773438 377.449219 L 1080.417969 377.449219 L 1080.417969 370.953125 L 1078.027344 370.953125 L 1078.027344 368.859375 L 1085.136719 368.859375 L 1085.136719 370.953125 L 1082.765625 370.953125 Z M 1082.773438 377.449219 " clip-rule="nonzero"/></clipPath><clipPath id="d6487a989d"><path d="M 1086 368.683594 L 1097 368.683594 L 1097 377.621094 L 1086 377.621094 Z M 1086 368.683594 " clip-rule="nonzero"/></clipPath><clipPath id="d31cf23eef"><path d="M 1094.632812 377.449219 L 1094.632812 371.613281 L 1094.609375 371.613281 L 1092.574219 377.449219 L 1090.582031 377.449219 L 1088.632812 371.839844 L 1088.601562 371.839844 L 1088.601562 377.449219 L 1086.328125 377.449219 L 1086.328125 368.859375 L 1089.832031 368.859375 L 1091.601562 374.074219 L 1091.632812 374.074219 L 1093.402344 368.859375 L 1096.984375 368.859375 L 1096.984375 377.449219 Z M 1094.632812 377.449219 " clip-rule="nonzero"/></clipPath></defs><g clip-path="url(#4e78b79298)"><path fill="#140556" d="M 347.425781 392.859375 L 364.839844 392.859375 L 364.839844 410.269531 L 347.425781 410.269531 Z M 347.425781 392.859375 " fill-opacity="1" fill-rule="nonzero"/></g><g clip-path="url(#5672036cab)"><path fill="#00f0ff" d="M 348.554688 445.09375 L 365.964844 445.09375 L 365.964844 462.503906 L 348.554688 462.503906 Z M 348.554688 445.09375 " fill-opacity="1" fill-rule="nonzero"/></g><g clip-path="url(#318a6e1405)"><g clip-path="url(#36e9fb56d0)"><path fill="#140556" d="M 361.089844 354.285156 L 500.007812 354.285156 L 500.007812 479.511719 L 361.089844 479.511719 Z M 361.089844 354.285156 " fill-opacity="1" fill-rule="nonzero"/></g></g><g clip-path="url(#4ee12b6492)"><g clip-path="url(#75e271d677)"><path fill="#140556" d="M 361.089844 354.285156 L 500.007812 354.285156 L 500.007812 479.511719 L 361.089844 479.511719 Z M 361.089844 354.285156 " fill-opacity="1" fill-rule="nonzero"/></g></g><g clip-path="url(#5c7a34d074)"><g clip-path="url(#0c68f4682b)"><path fill="#140556" d="M 361.089844 354.285156 L 500.007812 354.285156 L 500.007812 479.511719 L 361.089844 479.511719 Z M 361.089844 354.285156 " fill-opacity="1" fill-rule="nonzero"/></g></g><g clip-path="url(#40fe458245)"><g clip-path="url(#c55578528c)"><path fill="#140556" d="M 361.089844 354.285156 L 500.007812 354.285156 L 500.007812 479.511719 L 361.089844 479.511719 Z M 361.089844 354.285156 " fill-opacity="1" fill-rule="nonzero"/></g></g><g clip-path="url(#f39064d30a)"><path fill="#00f0ff" d="M 361.089844 354.285156 L 500.007812 354.285156 L 500.007812 479.511719 L 361.089844 479.511719 Z M 361.089844 354.285156 " fill-opacity="1" fill-rule="nonzero"/></g><g clip-path="url(#68d426953a)"><path fill="#00f0ff" d="M 361.089844 354.285156 L 500.007812 354.285156 L 500.007812 479.511719 L 361.089844 479.511719 Z M 361.089844 354.285156 " fill-opacity="1" fill-rule="nonzero"/></g><g clip-path="url(#8a50cd8f3b)"><g clip-path="url(#65e88e0f2d)"><path fill="#00f0ff" d="M 361.089844 354.285156 L 500.007812 354.285156 L 500.007812 479.511719 L 361.089844 479.511719 Z M 361.089844 354.285156 " fill-opacity="1" fill-rule="nonzero"/></g></g><g clip-path="url(#60938b8470)"><path fill="#01a3f8" d="M 361.089844 354.285156 L 500.007812 354.285156 L 500.007812 479.511719 L 361.089844 479.511719 Z M 361.089844 354.285156 " fill-opacity="1" fill-rule="nonzero"/></g><g clip-path="url(#6fe4d89eec)"><path fill="#00f0ff" d="M 361.089844 354.285156 L 500.007812 354.285156 L 500.007812 479.511719 L 361.089844 479.511719 Z M 361.089844 354.285156 " fill-opacity="1" fill-rule="nonzero"/></g><g clip-path="url(#2f5a657cd1)"><g clip-path="url(#1b7780db6a)"><path fill="#00f0ff" d="M 361.089844 354.285156 L 500.007812 354.285156 L 500.007812 479.511719 L 361.089844 479.511719 Z M 361.089844 354.285156 " fill-opacity="1" fill-rule="nonzero"/></g></g><g clip-path="url(#4aaf6f5a30)"><path fill="#01a3f8" d="M 361.089844 354.285156 L 500.007812 354.285156 L 500.007812 479.511719 L 361.089844 479.511719 Z M 361.089844 354.285156 " fill-opacity="1" fill-rule="nonzero"/></g><g clip-path="url(#68c0620e96)"><g clip-path="url(#bc2a8f125f)"><path fill="#140556" d="M 361.089844 354.285156 L 500.007812 354.285156 L 500.007812 479.511719 L 361.089844 479.511719 Z M 361.089844 354.285156 " fill-opacity="1" fill-rule="nonzero"/></g></g><g clip-path="url(#9d281405e3)"><path fill="#00f0ff" d="M 361.089844 354.285156 L 500.007812 354.285156 L 500.007812 479.511719 L 361.089844 479.511719 Z M 361.089844 354.285156 " fill-opacity="1" fill-rule="nonzero"/></g><g clip-path="url(#f095adfdcf)"><path fill="#f4e9dc" d="M 361.089844 354.285156 L 500.007812 354.285156 L 500.007812 479.511719 L 361.089844 479.511719 Z M 361.089844 354.285156 " fill-opacity="1" fill-rule="nonzero"/></g><g clip-path="url(#17d555b7d1)"><path fill="#00f0ff" d="M 361.089844 354.285156 L 500.007812 354.285156 L 500.007812 479.511719 L 361.089844 479.511719 Z M 361.089844 354.285156 " fill-opacity="1" fill-rule="nonzero"/></g><g clip-path="url(#99e0c87577)"><g clip-path="url(#b520638e84)"><path fill="#140556" d="M 361.089844 354.285156 L 500.007812 354.285156 L 500.007812 479.511719 L 361.089844 479.511719 Z M 361.089844 354.285156 " fill-opacity="1" fill-rule="nonzero"/></g></g><g clip-path="url(#e884faeb99)"><g clip-path="url(#d895012201)"><path fill="#140556" d="M 511.648438 372.84375 L 608.230469 372.84375 L 608.230469 473.199219 L 511.648438 473.199219 Z M 511.648438 372.84375 " fill-opacity="1" fill-rule="nonzero"/></g></g><g clip-path="url(#db5cc1984b)"><path fill="#140556" d="M 618.519531 375.414062 L 656.527344 375.414062 L 656.527344 473.253906 L 618.519531 473.253906 Z M 618.519531 375.414062 " fill-opacity="1" fill-rule="nonzero"/></g><g clip-path="url(#669efbafdc)"><path fill="#140556" d="M 626.839844 334.242188 L 656.527344 334.242188 L 656.527344 363.929688 L 626.839844 363.929688 Z M 626.839844 334.242188 " fill-opacity="1" fill-rule="nonzero"/></g><g clip-path="url(#658a754bed)"><g clip-path="url(#578ec1aec0)"><path fill="#140556" d="M 673.640625 375.414062 L 823.371094 375.414062 L 823.371094 475.757812 L 673.640625 475.757812 Z M 673.640625 375.414062 " fill-opacity="1" fill-rule="nonzero"/></g></g><g clip-path="url(#e0033d185d)"><path fill="#140556" d="M 834.546875 375.414062 L 872.480469 375.414062 L 872.480469 473.214844 L 834.546875 473.214844 Z M 834.546875 375.414062 " fill-opacity="1" fill-rule="nonzero"/></g><g clip-path="url(#002fd79e78)"><path fill="#140556" d="M 842.792969 334.242188 L 872.480469 334.242188 L 872.480469 363.929688 L 842.792969 363.929688 Z M 842.792969 334.242188 " fill-opacity="1" fill-rule="nonzero"/></g><g clip-path="url(#f1b26994c0)"><g clip-path="url(#faca68dcf7)"><path fill="#140556" d="M 884.710938 372.84375 L 968.230469 372.84375 L 968.230469 475.609375 L 884.710938 475.609375 Z M 884.710938 372.84375 " fill-opacity="1" fill-rule="nonzero"/></g></g><g clip-path="url(#6efb21116e)"><g clip-path="url(#f77c7b8933)"><path fill="#140556" d="M 972.007812 365.109375 L 1100.703125 365.109375 L 1100.703125 479.507812 L 972.007812 479.507812 Z M 972.007812 365.109375 " fill-opacity="1" fill-rule="nonzero"/></g></g><g clip-path="url(#4e8234eb1b)"><g clip-path="url(#9023b31285)"><path fill="#140556" d="M 972.007812 365.109375 L 1100.703125 365.109375 L 1100.703125 479.507812 L 972.007812 479.507812 Z M 972.007812 365.109375 " fill-opacity="1" fill-rule="nonzero"/></g></g><g clip-path="url(#d6487a989d)"><g clip-path="url(#d31cf23eef)"><path fill="#140556" d="M 972.007812 365.109375 L 1100.703125 365.109375 L 1100.703125 479.507812 L 972.007812 479.507812 Z M 972.007812 365.109375 " fill-opacity="1" fill-rule="nonzero"/></g></g></svg>