<svg xmlns="http://www.w3.org/2000/svg" xmlns:xlink="http://www.w3.org/1999/xlink" width="1920" zoomAndPan="magnify" viewBox="0 0 1440 809.999993" height="1080" preserveAspectRatio="xMidYMid meet" version="1.0"><defs><clipPath id="f5357a2f02"><path d="M 347.425781 392.859375 L 364.835938 392.859375 L 364.835938 410.273438 L 347.425781 410.273438 Z M 347.425781 392.859375 " clip-rule="nonzero"/></clipPath><clipPath id="be3c007015"><path d="M 348.554688 445.09375 L 365.960938 445.09375 L 365.960938 462.5 L 348.554688 462.5 Z M 348.554688 445.09375 " clip-rule="nonzero"/></clipPath><clipPath id="72416d6d51"><path d="M 399.242188 375.320312 L 496.582031 375.320312 L 496.582031 476 L 399.242188 476 Z M 399.242188 375.320312 " clip-rule="nonzero"/></clipPath><clipPath id="94288dbb07"><path d="M 475.082031 387.324219 L 466.53125 387.324219 L 466.523438 375.453125 L 466.523438 426.085938 C 466.523438 426.625 466.515625 427.15625 466.492188 427.675781 C 465.992188 441.960938 458.609375 448.050781 447.914062 448.050781 C 437.226562 448.050781 429.855469 441.96875 429.347656 427.675781 L 429.316406 426.085938 L 429.316406 392.867188 L 417.074219 392.867188 L 417.074219 375.453125 L 429.316406 375.453125 L 429.316406 375.414062 L 399.625 375.414062 L 399.625 426.085938 C 399.625 426.625 399.625 427.148438 399.628906 427.675781 C 399.757812 434.125 400.644531 439.929688 402.203125 445.089844 C 408.382812 465.496094 425.214844 475.757812 447.910156 475.757812 C 476.8125 475.757812 496.207031 458.933594 496.207031 426.085938 L 496.207031 375.414062 L 475.082031 375.414062 Z M 475.082031 387.324219 " clip-rule="nonzero"/></clipPath><clipPath id="d601ea84d7"><path d="M 364.839844 358.035156 L 382.246094 358.035156 L 382.246094 375.453125 L 364.839844 375.453125 Z M 364.839844 358.035156 " clip-rule="nonzero"/></clipPath><clipPath id="343adaa9b0"><path d="M 399.660156 358.035156 L 417.074219 358.035156 L 417.074219 375.453125 L 399.660156 375.453125 Z M 399.660156 358.035156 " clip-rule="nonzero"/></clipPath><clipPath id="4cfb9352a7"><path d="M 399.660156 392.859375 L 417.074219 392.859375 L 417.074219 410.273438 L 399.660156 410.273438 Z M 399.660156 392.859375 " clip-rule="nonzero"/></clipPath><clipPath id="4283eafe38"><path d="M 399.660156 410.273438 L 417.074219 410.273438 L 417.074219 427.679688 L 399.660156 427.679688 Z M 399.660156 410.273438 " clip-rule="nonzero"/></clipPath><clipPath id="94fabaa9dc"><path d="M 466.378906 410.273438 L 483.789062 410.273438 L 483.789062 427.679688 L 466.378906 427.679688 Z M 466.378906 410.273438 " clip-rule="nonzero"/></clipPath><clipPath id="d9ba4aff7f"><path d="M 417.074219 392.867188 L 434.492188 392.867188 L 434.492188 410.273438 L 417.074219 410.273438 Z M 417.074219 392.867188 " clip-rule="nonzero"/></clipPath><clipPath id="26cca72bb3"><path d="M 417.074219 358.035156 L 434.492188 358.035156 L 434.492188 375.453125 L 417.074219 375.453125 Z M 417.074219 358.035156 " clip-rule="nonzero"/></clipPath><clipPath id="6e9ecab01b"><path d="M 417.074219 410.273438 L 434.484375 410.273438 L 434.484375 427.679688 L 417.074219 427.679688 Z M 417.074219 410.273438 " clip-rule="nonzero"/></clipPath><clipPath id="46f6608f66"><path d="M 382.253906 375.453125 L 399.660156 375.453125 L 399.660156 392.859375 L 382.253906 392.859375 Z M 382.253906 375.453125 " clip-rule="nonzero"/></clipPath><clipPath id="3b0af8289c"><path d="M 457.664062 375.453125 L 466.53125 375.453125 L 466.53125 387.324219 L 457.664062 387.324219 Z M 457.664062 375.453125 " clip-rule="nonzero"/></clipPath><clipPath id="2095d1bd7d"><path d="M 449 375.320312 L 466.746094 375.320312 L 466.746094 392.929688 L 449 392.929688 Z M 449 375.320312 " clip-rule="nonzero"/></clipPath><clipPath id="91fc30e444"><path d="M 466.53125 392.867188 L 449.125 392.867188 L 449.125 375.453125 L 466.539062 375.453125 Z M 466.53125 392.867188 " clip-rule="nonzero"/></clipPath><clipPath id="62e749b76e"><path d="M 383.378906 427.679688 L 402.359375 427.679688 L 402.359375 445.097656 L 383.378906 445.097656 Z M 383.378906 427.679688 " clip-rule="nonzero"/></clipPath><clipPath id="27cfb81299"><path d="M 511.648438 372.84375 L 608.230469 372.84375 L 608.230469 473.199219 L 511.648438 473.199219 Z M 511.648438 372.84375 " clip-rule="nonzero"/></clipPath><clipPath id="8c2531913e"><path d="M 559.941406 372.84375 C 531.042969 372.84375 511.648438 389.667969 511.648438 422.515625 L 511.648438 473.179688 L 541.335938 473.179688 L 541.335938 422.515625 C 541.335938 407.082031 548.855469 400.546875 559.933594 400.546875 C 571.011719 400.546875 578.535156 407.082031 578.535156 422.515625 L 578.535156 473.179688 L 608.21875 473.179688 L 608.21875 422.515625 C 608.234375 389.464844 588.832031 372.84375 559.941406 372.84375 " clip-rule="nonzero"/></clipPath><clipPath id="8ea2f9fc4d"><path d="M 618.519531 375.414062 L 656.53125 375.414062 L 656.53125 405.101562 L 618.519531 405.101562 Z M 626.839844 405.101562 L 656.53125 405.101562 L 656.53125 473.183594 L 626.839844 473.183594 Z M 626.839844 405.101562 " clip-rule="nonzero"/></clipPath><clipPath id="8ef79da243"><path d="M 626.839844 334.242188 L 656.527344 334.242188 L 656.527344 363.925781 L 626.839844 363.925781 Z M 626.839844 334.242188 " clip-rule="nonzero"/></clipPath><clipPath id="22a26ffd31"><path d="M 673.640625 375.414062 L 823.371094 375.414062 L 823.371094 475.757812 L 673.640625 475.757812 Z M 673.640625 375.414062 " clip-rule="nonzero"/></clipPath><clipPath id="e0746b2cdd"><path d="M 793.570312 430.433594 C 793.570312 443.5 787.242188 448.054688 778.332031 448.054688 C 769.625 448.054688 763.285156 443.5 763.285156 430.433594 L 763.285156 375.414062 L 733.609375 375.414062 L 733.609375 430.433594 C 733.609375 443.5 727.273438 448.054688 718.5625 448.054688 C 709.660156 448.054688 703.324219 443.5 703.324219 430.433594 L 703.324219 375.414062 L 673.640625 375.414062 L 673.640625 430.433594 C 673.640625 461.90625 691.847656 475.757812 715.59375 475.757812 C 729.445312 475.757812 741.125 470.410156 748.445312 460.121094 C 755.765625 470.410156 767.246094 475.757812 781.300781 475.757812 C 805.046875 475.757812 823.257812 461.90625 823.257812 430.433594 L 823.257812 375.414062 L 793.570312 375.414062 Z M 793.570312 430.433594 " clip-rule="nonzero"/></clipPath><clipPath id="452869d7de"><path d="M 834.546875 375.414062 L 872.480469 375.414062 L 872.480469 405.101562 L 834.546875 405.101562 Z M 842.796875 405.101562 L 872.480469 405.101562 L 872.480469 473.183594 L 842.796875 473.183594 Z M 842.796875 405.101562 " clip-rule="nonzero"/></clipPath><clipPath id="3bb28f36cf"><path d="M 842.792969 334.242188 L 872.476562 334.242188 L 872.476562 363.925781 L 842.792969 363.925781 Z M 842.792969 334.242188 " clip-rule="nonzero"/></clipPath><clipPath id="ab3c7fee61"><path d="M 884.710938 372.84375 L 968.554688 372.84375 L 968.554688 475.9375 L 884.710938 475.9375 Z M 884.710938 372.84375 " clip-rule="nonzero"/></clipPath><clipPath id="3ecfd22af8"><path d="M 932.605469 413.214844 C 923.5 411.828125 916.375 411.042969 916.375 405.101562 C 916.375 401.140625 919.347656 397.382812 926.667969 397.382812 C 932.605469 397.382812 936.558594 399.957031 937.355469 404.507812 L 966.25 404.507812 C 965.660156 386.890625 950.613281 372.84375 926.277344 372.84375 C 901.9375 372.84375 886.292969 386.695312 886.292969 406.488281 C 886.292969 430.039062 908.464844 433.40625 921.917969 435.386719 C 931.023438 436.773438 938.148438 437.367188 938.148438 443.898438 C 938.148438 448.054688 935.179688 451.226562 926.074219 451.226562 C 917.960938 451.226562 914.203125 448.652344 914 443.507812 L 884.710938 443.507812 C 885.109375 462.3125 901.339844 475.773438 926.472656 475.773438 C 951.605469 475.773438 968.230469 462.3125 968.230469 442.128906 C 968.230469 418.976562 946.660156 415.210938 932.605469 413.230469 " clip-rule="nonzero"/></clipPath><clipPath id="81ff56596e"><path d="M 975.582031 372.707031 L 1080.59375 372.707031 L 1080.59375 475.933594 L 975.582031 475.933594 Z M 975.582031 372.707031 " clip-rule="nonzero"/></clipPath><clipPath id="5514ad2822"><path d="M 1007.226562 413.816406 C 1010.195312 403.921875 1018.109375 399.363281 1028.40625 399.363281 C 1038.703125 399.363281 1046.617188 403.71875 1049.976562 413.816406 Z M 1080.457031 424.300781 C 1080.457031 394.617188 1059.277344 372.84375 1028.40625 372.84375 C 997.535156 372.84375 975.757812 394.617188 975.757812 424.300781 C 975.757812 453.984375 997.527344 475.757812 1028.398438 475.757812 C 1052.742188 475.757812 1071.34375 462.296875 1077.679688 442.113281 L 1047.007812 442.113281 C 1043.25 447.460938 1036.910156 449.238281 1028.398438 449.238281 C 1017.710938 449.238281 1009.003906 444.09375 1006.625 432.609375 L 1080.449219 432.609375 Z M 1080.457031 424.300781 " clip-rule="nonzero"/></clipPath><clipPath id="a0ea31a728"><path d="M 1078 368.683594 L 1085.511719 368.683594 L 1085.511719 377.621094 L 1078 377.621094 Z M 1078 368.683594 " clip-rule="nonzero"/></clipPath><clipPath id="bbf3752755"><path d="M 1082.773438 377.449219 L 1080.417969 377.449219 L 1080.417969 370.953125 L 1078.027344 370.953125 L 1078.027344 368.859375 L 1085.136719 368.859375 L 1085.136719 370.953125 L 1082.765625 370.953125 Z M 1082.773438 377.449219 " clip-rule="nonzero"/></clipPath><clipPath id="8c2efb891d"><path d="M 1086 368.683594 L 1097 368.683594 L 1097 377.621094 L 1086 377.621094 Z M 1086 368.683594 " clip-rule="nonzero"/></clipPath><clipPath id="c70ff5330c"><path d="M 1094.632812 377.449219 L 1094.632812 371.613281 L 1094.609375 371.613281 L 1092.574219 377.449219 L 1090.582031 377.449219 L 1088.632812 371.839844 L 1088.601562 371.839844 L 1088.601562 377.449219 L 1086.328125 377.449219 L 1086.328125 368.859375 L 1089.832031 368.859375 L 1091.601562 374.074219 L 1091.632812 374.074219 L 1093.402344 368.859375 L 1096.984375 368.859375 L 1096.984375 377.449219 Z M 1094.632812 377.449219 " clip-rule="nonzero"/></clipPath></defs><g clip-path="url(#f5357a2f02)"><path fill="#f4e9dc" d="M 347.425781 392.859375 L 364.839844 392.859375 L 364.839844 410.269531 L 347.425781 410.269531 Z M 347.425781 392.859375 " fill-opacity="1" fill-rule="nonzero"/></g><g clip-path="url(#be3c007015)"><path fill="#00f0ff" d="M 348.554688 445.09375 L 365.964844 445.09375 L 365.964844 462.503906 L 348.554688 462.503906 Z M 348.554688 445.09375 " fill-opacity="1" fill-rule="nonzero"/></g><g clip-path="url(#72416d6d51)"><g clip-path="url(#94288dbb07)"><path fill="#f4e9dc" d="M 361.089844 354.285156 L 500.007812 354.285156 L 500.007812 479.507812 L 361.089844 479.507812 Z M 361.089844 354.285156 " fill-opacity="1" fill-rule="nonzero"/></g></g><g clip-path="url(#d601ea84d7)"><path fill="#00f0ff" d="M 361.089844 354.285156 L 500.007812 354.285156 L 500.007812 479.507812 L 361.089844 479.507812 Z M 361.089844 354.285156 " fill-opacity="1" fill-rule="nonzero"/></g><g clip-path="url(#343adaa9b0)"><path fill="#00f0ff" d="M 361.089844 354.285156 L 500.007812 354.285156 L 500.007812 479.507812 L 361.089844 479.507812 Z M 361.089844 354.285156 " fill-opacity="1" fill-rule="nonzero"/></g><g clip-path="url(#4cfb9352a7)"><path fill="#00f0ff" d="M 361.089844 354.285156 L 500.007812 354.285156 L 500.007812 479.507812 L 361.089844 479.507812 Z M 361.089844 354.285156 " fill-opacity="1" fill-rule="nonzero"/></g><g clip-path="url(#4283eafe38)"><path fill="#01a3f8" d="M 361.089844 354.285156 L 500.007812 354.285156 L 500.007812 479.507812 L 361.089844 479.507812 Z M 361.089844 354.285156 " fill-opacity="1" fill-rule="nonzero"/></g><g clip-path="url(#94fabaa9dc)"><path fill="#00f0ff" d="M 361.089844 354.285156 L 500.007812 354.285156 L 500.007812 479.507812 L 361.089844 479.507812 Z M 361.089844 354.285156 " fill-opacity="1" fill-rule="nonzero"/></g><g clip-path="url(#d9ba4aff7f)"><path fill="#00f0ff" d="M 361.089844 354.285156 L 500.007812 354.285156 L 500.007812 479.507812 L 361.089844 479.507812 Z M 361.089844 354.285156 " fill-opacity="1" fill-rule="nonzero"/></g><g clip-path="url(#26cca72bb3)"><path fill="#01a3f8" d="M 361.089844 354.285156 L 500.007812 354.285156 L 500.007812 479.507812 L 361.089844 479.507812 Z M 361.089844 354.285156 " fill-opacity="1" fill-rule="nonzero"/></g><g clip-path="url(#6e9ecab01b)"><path fill="#f4e9dc" d="M 361.089844 354.285156 L 500.007812 354.285156 L 500.007812 479.507812 L 361.089844 479.507812 Z M 361.089844 354.285156 " fill-opacity="1" fill-rule="nonzero"/></g><g clip-path="url(#46f6608f66)"><path fill="#00f0ff" d="M 361.089844 354.285156 L 500.007812 354.285156 L 500.007812 479.507812 L 361.089844 479.507812 Z M 361.089844 354.285156 " fill-opacity="1" fill-rule="nonzero"/></g><g clip-path="url(#3b0af8289c)"><path fill="#f4e9dc" d="M 361.089844 354.285156 L 500.007812 354.285156 L 500.007812 479.507812 L 361.089844 479.507812 Z M 361.089844 354.285156 " fill-opacity="1" fill-rule="nonzero"/></g><g clip-path="url(#2095d1bd7d)"><g clip-path="url(#91fc30e444)"><path fill="#00f0ff" d="M 361.089844 354.285156 L 500.007812 354.285156 L 500.007812 479.507812 L 361.089844 479.507812 Z M 361.089844 354.285156 " fill-opacity="1" fill-rule="nonzero"/></g></g><g clip-path="url(#62e749b76e)"><path fill="#f4e9dc" d="M 361.089844 354.285156 L 500.007812 354.285156 L 500.007812 479.507812 L 361.089844 479.507812 Z M 361.089844 354.285156 " fill-opacity="1" fill-rule="nonzero"/></g><g clip-path="url(#27cfb81299)"><g clip-path="url(#8c2531913e)"><path fill="#f4e9dc" d="M 511.648438 372.84375 L 608.230469 372.84375 L 608.230469 473.199219 L 511.648438 473.199219 Z M 511.648438 372.84375 " fill-opacity="1" fill-rule="nonzero"/></g></g><g clip-path="url(#8ea2f9fc4d)"><path fill="#f4e9dc" d="M 618.519531 375.414062 L 656.527344 375.414062 L 656.527344 473.253906 L 618.519531 473.253906 Z M 618.519531 375.414062 " fill-opacity="1" fill-rule="nonzero"/></g><g clip-path="url(#8ef79da243)"><path fill="#f4e9dc" d="M 626.839844 334.242188 L 656.527344 334.242188 L 656.527344 363.929688 L 626.839844 363.929688 Z M 626.839844 334.242188 " fill-opacity="1" fill-rule="nonzero"/></g><g clip-path="url(#22a26ffd31)"><g clip-path="url(#e0746b2cdd)"><path fill="#f4e9dc" d="M 673.640625 375.414062 L 823.371094 375.414062 L 823.371094 475.757812 L 673.640625 475.757812 Z M 673.640625 375.414062 " fill-opacity="1" fill-rule="nonzero"/></g></g><g clip-path="url(#452869d7de)"><path fill="#f4e9dc" d="M 834.546875 375.414062 L 872.480469 375.414062 L 872.480469 473.214844 L 834.546875 473.214844 Z M 834.546875 375.414062 " fill-opacity="1" fill-rule="nonzero"/></g><g clip-path="url(#3bb28f36cf)"><path fill="#f4e9dc" d="M 842.792969 334.242188 L 872.480469 334.242188 L 872.480469 363.929688 L 842.792969 363.929688 Z M 842.792969 334.242188 " fill-opacity="1" fill-rule="nonzero"/></g><g clip-path="url(#ab3c7fee61)"><g clip-path="url(#3ecfd22af8)"><path fill="#f4e9dc" d="M 884.710938 372.84375 L 968.230469 372.84375 L 968.230469 475.609375 L 884.710938 475.609375 Z M 884.710938 372.84375 " fill-opacity="1" fill-rule="nonzero"/></g></g><g clip-path="url(#81ff56596e)"><g clip-path="url(#5514ad2822)"><path fill="#f4e9dc" d="M 972.007812 365.109375 L 1100.703125 365.109375 L 1100.703125 479.507812 L 972.007812 479.507812 Z M 972.007812 365.109375 " fill-opacity="1" fill-rule="nonzero"/></g></g><g clip-path="url(#a0ea31a728)"><g clip-path="url(#bbf3752755)"><path fill="#f4e9dc" d="M 972.007812 365.109375 L 1100.703125 365.109375 L 1100.703125 479.507812 L 972.007812 479.507812 Z M 972.007812 365.109375 " fill-opacity="1" fill-rule="nonzero"/></g></g><g clip-path="url(#8c2efb891d)"><g clip-path="url(#c70ff5330c)"><path fill="#f4e9dc" d="M 972.007812 365.109375 L 1100.703125 365.109375 L 1100.703125 479.507812 L 972.007812 479.507812 Z M 972.007812 365.109375 " fill-opacity="1" fill-rule="nonzero"/></g></g></svg>